<svg version="1.1" width="325px" height="60px" viewBox="60 75 325 60" xmlns="http://www.w3.org/2000/svg">
<!--
Symbols below fit a viewBox w=325 and h=60
-->
<g><g fill="#1F64FF">
<path d="m 81.7,125.0822 q -3.24,0 -6,-1.08 -2.76,-1.14 -4.8,-3.12 -1.98,-2.04 -3.12,-4.8 -1.14,-2.76 -1.14,-6.06 0,-3.3 1.14,-6.06 1.14,-2.76 3.12,-4.740002 2.04,-2.04 4.8,-3.12 2.76,-1.14 6,-1.14 3.24,0 6,1.14 2.76,1.08 4.74,3.12 2.04,1.980002 3.18,4.740002 1.14,2.76 1.14,6.06 0,3.3 -1.14,6.06 -1.14,2.76 -3.18,4.8 -1.98,1.98 -4.74,3.12 -2.76,1.08 -6,1.08 z m 0,-6.42 q 3.18,0 5.04,-2.16 1.86,-2.16 1.86,-6.48 0,-4.32 -1.86,-6.48 -1.86,-2.16 -5.04,-2.16 -3.18,0 -5.04,2.16 -1.86,2.16 -1.86,6.48 0,4.32 1.86,6.48 1.86,2.16 5.04,2.16 z"/>
<path d="m 121.05062,124.3622 0,-18.06 q 0,-2.76 -1.19999,-3.9 -1.2,-1.2 -3.9,-1.2 -2.7,0 -3.90001,1.2 -1.19999,1.14 -1.19999,3.9 l 0,18.06 -8.04,0 0,-18.9 q 0,-5.4 3.53999,-7.920002 3.54001,-2.58 9.66001,-2.58 6.12,0 9.66,2.58 3.53999,2.520002 3.53999,7.920002 l 0,18.9 -8.16,0 z"/>
<path d="m 152.11187,123.7022 q -0.72,0.3 -1.98,0.48 -1.26,0.18 -2.7,0.18 -2.58,0 -4.74,-0.78 -2.1,-0.78 -3.65999,-2.22 -1.5,-1.5 -2.34001,-3.66 -0.84,-2.16 -0.84,-4.98 l 0,-25.620002 8.16,0 0,8.58 7.2,0 0,6.300002 -7.2,0 0,10.74 q 0,2.04 1.08001,3.42 1.13999,1.32 3.17999,1.32 1.26001,0 2.1,-0.18 0.9,-0.18 1.74,-0.48 l 0,6.9 z"/>
<path d="m 170.40812,112.6022 q -3.3,0 -6.12,-1.14 -2.82,-1.2 -4.86,-3.24 -2.04,-2.1 -3.18,-4.92 -1.14,-2.82 -1.14,-6.180002 0,-3.36 1.14,-6.18 1.14,-2.82 3.18,-4.86 2.04,-2.1 4.86,-3.24 2.82,-1.2 6.12,-1.2 3.3,0 6.12,1.2 2.82,1.14 4.86,3.24 2.04,2.04 3.18,4.86 1.14,2.82 1.14,6.18 0,3.360002 -1.14,6.180002 -1.14,2.82 -3.18,4.92 -2.04,2.04 -4.86,3.24 -2.82,1.14 -6.12,1.14 z m 0,-6.84 q 1.56,0 2.82,-0.66 1.26,-0.66 2.1,-1.8 0.9,-1.14 1.38,-2.7 0.48001,-1.620002 0.48001,-3.480002 0,-1.86 -0.48001,-3.42 -0.48,-1.62 -1.38,-2.76 -0.84,-1.14 -2.1,-1.8 -1.26,-0.66 -2.82,-0.66 -1.56,0 -2.82,0.66 -1.26,0.66 -2.16,1.8 -0.84,1.14 -1.32,2.76 -0.48,1.56 -0.48,3.42 0,1.86 0.48,3.480002 0.48,1.56 1.32,2.7 0.9,1.14 2.16,1.8 1.26,0.66 2.82,0.66 z m -13.32,18.6 0,-7.14 26.64,0 0,7.14 -26.64,0 z"/>
<path d="m 227.10437,124.3622 0,-18.06 q 0,-2.76 -1.13999,-3.9 -1.14001,-1.2 -3.84001,-1.2 -2.52,0 -3.71999,1.08 -1.20001,1.02 -1.32001,3.48 l 0,18.6 -7.68,0 0,-18.06 q 0,-2.76 -1.2,-3.9 -1.14,-1.2 -3.84,-1.2 -2.7,0 -3.84,1.2 -1.14,1.14 -1.14,3.9 l 0,18.06 -7.98,0 0,-18.9 q 0,-5.4 3.48,-7.920002 3.48,-2.58 9.54,-2.58 3,0 5.22,0.84 2.22,0.78 3.78,2.1 1.56,-1.26 3.72,-2.1 2.16,-0.84 5.04,-0.84 6,0 9.48,2.58 3.54,2.520002 3.54,7.920002 l 0,18.9 -8.1,0 z"/>
<path d="m 270.58656,110.0822 q 0,3.78 -1.02,6.6 -1.02,2.82 -2.94,4.68 -1.86,1.86 -4.56,2.82 -2.64,0.9 -5.94,0.9 -3.48,0 -6.24,-1.2 -2.76,-1.26 -4.68,-3.36 -1.86,-2.16 -2.88,-5.1 -0.96,-2.94 -0.96,-6.36 0,-3.24 0.96,-5.82 1.02,-2.64 2.82,-4.440002 1.8,-1.86 4.26,-2.82 2.52,-1.02 5.58,-1.02 3.06,0 5.1,1.08 2.04,1.02 3.3,2.46 l 0,-2.82 7.2,0 0,14.400002 z m -14.4,8.58 q 3.06,0 4.86,-2.16 1.8,-2.16 1.8,-6.48 0,-4.32 -1.8,-6.48 -1.8,-2.16 -4.86,-2.16 -3.06,0 -4.86,2.16 -1.8,2.16 -1.8,6.48 0,4.32 1.8,6.48 1.8,2.16 4.86,2.16 z"/>
<path d="m 293.55719,123.7022 q -0.72,0.3 -1.98,0.48 -1.26,0.18 -2.7,0.18 -2.58,0 -4.74,-0.78 -2.1,-0.78 -3.66,-2.22 -1.5,-1.5 -2.34,-3.66 -0.84,-2.16 -0.84,-4.98 l 0,-25.620002 8.16,0 0,8.58 7.2,0 0,6.300002 -7.2,0 0,10.74 q 0,2.04 1.08,3.42 1.14,1.32 3.18,1.32 1.26,0 2.1,-0.18 0.9,-0.18 1.74,-0.48 l 0,6.9 z"/>
<path d="m 298.29344,124.3622 0,-28.680002 8.16,0 0,28.680002 -8.16,0 z m 4.14,-32.040002 q -2.04,0 -3.3,-1.44 -1.26,-1.5 -1.26,-3.6 0,-2.1 1.26,-3.48 1.26,-1.44 3.36,-1.44 2.04,0 3.3,1.44 1.26,1.38 1.26,3.48 0,2.1 -1.26,3.6 -1.26,1.44 -3.36,1.44 z"/>
<path d="m 337.73969,124.6022 q -1.26,0.18 -2.88,0.3 -1.56,0.18 -3.3,0.18 -4.08,0 -7.44,-0.78 -3.3,-0.78 -5.76,-2.46 -2.4,-1.74 -3.72,-4.44 -1.32,-2.76 -1.32,-6.6 0,-4.02 1.32,-6.96 1.38,-3 3.78,-4.980002 2.4,-1.98 5.7,-2.94 3.36,-0.96 7.32,-0.96 1.74,0 3.3,0.18 1.56,0.12 2.82,0.3 l 0,6.420002 q -1.08,-0.24 -2.34,-0.36 -1.2,-0.12 -3,-0.12 -5.28,0 -8.04,2.16 -2.7,2.16 -2.7,7.02 0,4.32 2.76,6.24 2.76,1.86 8.1,1.86 1.74,0 3.06,-0.12 1.32,-0.12 2.34,-0.36 l 0,6.42 z"/>
<path d="m 371.95375,110.0822 q 0,3.78 -1.02,6.6 -1.02,2.82 -2.94,4.68 -1.86,1.86 -4.56,2.82 -2.64,0.9 -5.94,0.9 -3.48,0 -6.24,-1.2 -2.76,-1.26 -4.68,-3.36 -1.86,-2.16 -2.88,-5.1 -0.96,-2.94 -0.96,-6.36 0,-3.24 0.96,-5.82 1.02,-2.64 2.82,-4.440002 1.8,-1.86 4.26,-2.82 2.52,-1.02 5.58,-1.02 3.06,0 5.1,1.08 2.04,1.02 3.3,2.46 l 0,-2.82 7.2,0 0,14.400002 z m -14.4,8.58 q 3.06,0 4.86,-2.16 1.8,-2.16 1.8,-6.48 0,-4.32 -1.8,-6.48 -1.8,-2.16 -4.86,-2.16 -3.06,0 -4.86,2.16 -1.8,2.16 -1.8,6.48 0,4.32 1.8,6.48 1.8,2.16 4.86,2.16 z"/>
</g></g>
</svg>
